<svg width="25" height="24" viewBox="0 0 25 24" fill="none" xmlns="http://www.w3.org/2000/svg">
<path d="M3.91056 7.51C4.74257 5.85324 6.01893 4.46051 7.59699 3.48747C9.17505 2.51443 10.9926 1.99942 12.8466 2C15.5416 2 17.8056 2.991 19.5366 4.605L16.6696 7.473C15.6326 6.482 14.3146 5.977 12.8466 5.977C10.2416 5.977 8.03656 7.737 7.25156 10.1C7.05156 10.7 6.93756 11.34 6.93756 12C6.93756 12.66 7.05156 13.3 7.25156 13.9C8.03756 16.264 10.2416 18.023 12.8466 18.023C14.1916 18.023 15.3366 17.668 16.2326 17.068C16.752 16.726 17.1967 16.2822 17.5398 15.7635C17.8828 15.2448 18.1172 14.6619 18.2286 14.05H12.8466V10.182H22.2646C22.3826 10.836 22.4466 11.518 22.4466 12.227C22.4466 15.273 21.3566 17.837 19.4646 19.577C17.8106 21.105 15.5466 22 12.8466 22C11.5332 22.0005 10.2326 21.7422 9.0191 21.2399C7.80561 20.7375 6.70301 20.0009 5.77432 19.0722C4.84563 18.1436 4.10905 17.041 3.60669 15.8275C3.10433 14.614 2.84603 13.3134 2.84656 12C2.84656 10.386 3.23256 8.86 3.91056 7.51Z" fill="black"/>
</svg>
