<svg width="170" height="173" viewBox="0 0 170 173" fill="none" xmlns="http://www.w3.org/2000/svg">
<path d="M70.0902 69.1509H100.379M85.2348 54.0063V84.2956M22.2936 171.377L8.31511 153.9C3.89581 148.36 1.49249 141.481 1.50002 134.394V98.4937C1.50001 95.7375 2.59282 93.0937 4.53889 91.142C6.48496 89.1902 9.12551 88.0897 11.8817 88.0817C14.6425 88.0837 17.2896 89.1813 19.2418 91.1335C21.194 93.0857 22.2916 95.7329 22.2936 98.4937V125.391M123.096 76.7232C123.096 86.7648 119.107 96.395 112.007 103.495C104.907 110.596 95.2764 114.585 85.2348 114.585C75.1933 114.585 65.563 110.596 58.4626 103.495C51.3622 96.395 47.3732 86.7648 47.3732 76.7232C47.3732 48.327 85.2348 1 85.2348 1C85.2348 1 123.096 48.327 123.096 76.7232Z" stroke="white" stroke-width="1.5" stroke-linecap="round" stroke-linejoin="round"/>
<path d="M53.5294 170.431V149.607C53.5272 143.435 51.6987 137.401 48.2742 132.266L40.3232 120.385C39.6464 119.257 38.7477 118.278 37.6815 117.507C36.6153 116.737 35.4038 116.19 34.1203 115.901C32.8368 115.613 31.5081 115.587 30.2145 115.827C28.9209 116.067 27.6895 116.566 26.5946 117.296C24.6254 118.611 23.2037 120.6 22.5959 122.889C21.9881 125.178 22.236 127.61 23.2931 129.729L32.6828 145.351M147.706 171.377L161.685 153.9C166.107 148.357 168.508 141.482 168.5 134.394V98.4936C168.5 95.7322 167.403 93.0839 165.45 91.1313C163.498 89.1786 160.85 88.0817 158.088 88.0817C155.327 88.0837 152.68 89.1813 150.728 91.1335C148.776 93.0857 147.678 95.7328 147.676 98.4936V125.391" stroke="white" stroke-width="1.5" stroke-linecap="round" stroke-linejoin="round"/>
<path d="M116.47 170.431V149.607C116.47 143.435 118.303 137.4 121.725 132.266L129.676 120.385C130.354 119.258 131.253 118.28 132.319 117.51C133.386 116.739 134.597 116.194 135.88 115.905C137.163 115.616 138.492 115.59 139.785 115.829C141.078 116.069 142.31 116.567 143.405 117.296C145.373 118.613 146.794 120.601 147.401 122.89C148.009 125.178 147.762 127.61 146.707 129.729L137.317 145.351" stroke="white" stroke-width="1.5" stroke-linecap="round" stroke-linejoin="round"/>
</svg>
