<svg width="24" height="24" viewBox="0 0 24 24" fill="none" xmlns="http://www.w3.org/2000/svg">
<path d="M3.60001 6.60001C3.60001 5.80436 3.91608 5.04129 4.47869 4.47869C5.04129 3.91608 5.80436 3.60001 6.60001 3.60001H17.4C18.1957 3.60001 18.9587 3.91608 19.5213 4.47869C20.0839 5.04129 20.4 5.80436 20.4 6.60001V9.87841C19.9591 9.61528 19.5576 9.29129 19.2072 8.91601C19.0371 8.73814 18.8297 8.60006 18.6 8.51161V6.60001C18.6 6.28175 18.4736 5.97652 18.2485 5.75148C18.0235 5.52643 17.7183 5.40001 17.4 5.40001H6.60001C6.28175 5.40001 5.97652 5.52643 5.75148 5.75148C5.52643 5.97652 5.40001 6.28175 5.40001 6.60001V17.4C5.40001 17.7183 5.52643 18.0235 5.75148 18.2485C5.97652 18.4736 6.28175 18.6 6.60001 18.6H12.6852C12.9754 19.256 13.3652 19.8631 13.8408 20.4H6.60001C5.80436 20.4 5.04129 20.0839 4.47869 19.5213C3.91608 18.9587 3.60001 18.1957 3.60001 17.4V6.60001ZM18.3408 9.74641C19.5312 10.9896 20.85 11.6004 22.32 11.6004C22.5552 11.6004 22.752 11.7768 22.7928 12.0096L22.8 12.0996V15.1008C22.8 18.3192 21.2244 20.508 18.1524 21.5748C18.0537 21.6093 17.9463 21.6093 17.8476 21.5748C14.8692 20.5392 13.2972 18.4512 13.2036 15.3912L13.2 15.1008V12.1008C13.2 11.8248 13.416 11.6004 13.68 11.6004C15.1476 11.6004 16.4676 10.9884 17.6616 9.74641C17.7052 9.70013 17.7579 9.66327 17.8163 9.63807C17.8747 9.61287 17.9376 9.59988 18.0012 9.59988C18.0648 9.59988 18.1277 9.61287 18.1861 9.63807C18.2445 9.66327 18.2972 9.70013 18.3408 9.74641ZM18 14.964L16.368 13.332C16.2827 13.2525 16.1699 13.2092 16.0533 13.2113C15.9367 13.2134 15.8255 13.2606 15.743 13.343C15.6606 13.4255 15.6134 13.5367 15.6113 13.6533C15.6092 13.7699 15.6525 13.8827 15.732 13.968L17.364 15.6L15.738 17.226C15.6585 17.3113 15.6152 17.4241 15.6173 17.5407C15.6194 17.6573 15.6666 17.7685 15.749 17.851C15.8315 17.9334 15.9427 17.9807 16.0593 17.9827C16.1759 17.9848 16.2887 17.9415 16.374 17.862L18 16.236L19.626 17.862C19.7113 17.9415 19.8241 17.9848 19.9407 17.9827C20.0573 17.9807 20.1685 17.9334 20.251 17.851C20.3334 17.7685 20.3807 17.6573 20.3827 17.5407C20.3848 17.4241 20.3415 17.3113 20.262 17.226L18.636 15.6L20.262 13.974C20.3415 13.8887 20.3848 13.7759 20.3827 13.6593C20.3807 13.5427 20.3334 13.4315 20.251 13.349C20.1685 13.2666 20.0573 13.2194 19.9407 13.2173C19.8241 13.2152 19.7113 13.2585 19.626 13.338L18 14.964Z" fill="white"/>
</svg>
