<svg width="24" height="24" viewBox="0 0 24 24" fill="none" xmlns="http://www.w3.org/2000/svg">
<g clip-path="url(#clip0_101_466)">
<path d="M6.82649 7.33724C7.13111 7.20098 7.4059 7.00603 7.63516 6.76354C7.86441 6.52104 8.04364 6.23575 8.1626 5.92397C8.28156 5.61218 8.33793 5.28001 8.32847 4.94644C8.31901 4.61286 8.24393 4.28442 8.10749 3.97987C7.83153 3.36458 7.32256 2.88403 6.69245 2.64382C6.06234 2.40362 5.36264 2.42342 4.74712 2.69887C4.44222 2.83487 4.16714 3.02967 3.93764 3.27213C3.70814 3.51459 3.52872 3.79994 3.40966 4.11184C3.2906 4.42374 3.23423 4.75606 3.24379 5.08978C3.25335 5.42349 3.32865 5.75205 3.46537 6.05662C3.74132 6.6721 4.25043 7.15278 4.88075 7.39293C5.51106 7.63309 6.21095 7.61306 6.82649 7.33724ZM10.4662 4.5405C10.5171 4.45303 10.541 4.35245 10.5348 4.25144C10.5286 4.15043 10.4926 4.05353 10.4313 3.97296C10.3701 3.89238 10.2864 3.83175 10.1908 3.79871C10.0951 3.76566 9.99181 3.76169 9.8939 3.78729C9.796 3.81289 9.70787 3.86691 9.64064 3.94255C9.5734 4.01818 9.53008 4.11203 9.51613 4.21226C9.50218 4.31249 9.51823 4.41461 9.56225 4.50573C9.60627 4.59685 9.6763 4.67288 9.76349 4.72425C9.88112 4.79268 10.0211 4.81173 10.1527 4.77722C10.2843 4.74272 10.3969 4.65746 10.4659 4.54012L10.4662 4.5405ZM15.1856 1.81537C15.2195 1.75731 15.2416 1.69313 15.2507 1.62651C15.2597 1.55989 15.2555 1.49214 15.2384 1.42714C15.2212 1.36214 15.1914 1.30116 15.1506 1.24771C15.1098 1.19425 15.0589 1.14937 15.0007 1.11562C14.9132 1.0646 14.8125 1.04069 14.7113 1.04692C14.6102 1.05315 14.5132 1.08923 14.4325 1.15061C14.3519 1.21199 14.2913 1.2959 14.2584 1.39173C14.2254 1.48756 14.2217 1.59101 14.2475 1.68898C14.2734 1.78695 14.3278 1.87505 14.4037 1.94214C14.4797 2.00922 14.5738 2.05227 14.6742 2.06584C14.7746 2.07941 14.8768 2.06289 14.9679 2.01837C15.0589 1.97385 15.1347 1.90296 15.1856 1.81537ZM13.6125 2.72362C13.6464 2.66563 13.6685 2.6015 13.6775 2.53493C13.6865 2.46836 13.6822 2.40066 13.6649 2.33575C13.6477 2.27084 13.6177 2.20999 13.5768 2.15672C13.5358 2.10345 13.4848 2.05881 13.4265 2.02537C13.3686 1.99145 13.3046 1.96927 13.2381 1.96009C13.1717 1.95091 13.1041 1.95491 13.0392 1.97187C12.9742 1.98883 12.9133 2.01841 12.8598 2.05893C12.8064 2.09944 12.7614 2.1501 12.7275 2.208C12.6594 2.32568 12.6406 2.4655 12.6752 2.597C12.7097 2.72849 12.7948 2.841 12.912 2.91C13.0296 2.9782 13.1695 2.99693 13.3009 2.96205C13.4323 2.92717 13.5445 2.84155 13.6129 2.724L13.6125 2.72362ZM16.7591 0.907495C16.8271 0.790006 16.8459 0.65042 16.8114 0.519143C16.7769 0.387866 16.6919 0.275536 16.575 0.206621C16.4571 0.138878 16.3173 0.120415 16.1859 0.155248C16.0545 0.190081 15.9422 0.275392 15.8734 0.392621C15.8396 0.450661 15.8175 0.514801 15.8085 0.581368C15.7996 0.647934 15.8038 0.71562 15.821 0.780549C15.8382 0.845478 15.868 0.906375 15.9088 0.959753C15.9496 1.01313 16.0005 1.05794 16.0586 1.09162C16.1167 1.12557 16.1809 1.14774 16.2476 1.15686C16.3143 1.16598 16.3821 1.16188 16.4472 1.14478C16.5123 1.12768 16.5734 1.09792 16.627 1.05721C16.6805 1.01649 16.7252 0.965621 16.7591 0.907495ZM11.9415 3.75225C11.9911 3.70703 12.0313 3.65247 12.0598 3.59168C12.0883 3.53089 12.1045 3.46507 12.1075 3.39801C12.1105 3.33094 12.1002 3.26394 12.0773 3.20085C12.0543 3.13776 12.0191 3.07983 11.9737 3.03037C11.8822 2.93029 11.7548 2.87058 11.6193 2.86432C11.4839 2.85807 11.3515 2.90578 11.2511 2.997C11.2014 3.04213 11.1611 3.09664 11.1325 3.15739C11.1039 3.21814 11.0876 3.28393 11.0845 3.351C11.0814 3.41807 11.0916 3.48509 11.1144 3.54822C11.1373 3.61135 11.1724 3.66934 11.2177 3.71887C11.2631 3.76859 11.3177 3.8089 11.3787 3.83748C11.4396 3.86607 11.5055 3.88238 11.5727 3.88548C11.6399 3.88858 11.7071 3.87841 11.7704 3.85555C11.8336 3.83269 11.8918 3.79758 11.9415 3.75225ZM10.4662 5.4885C10.5172 5.57604 10.5411 5.67673 10.5348 5.77783C10.5286 5.87894 10.4926 5.97593 10.4313 6.05658C10.37 6.13722 10.2862 6.19789 10.1904 6.23093C10.0947 6.26397 9.99125 6.26791 9.89326 6.24223C9.79527 6.21656 9.70709 6.16243 9.63984 6.08668C9.57259 6.01093 9.52929 5.91695 9.5154 5.81661C9.50152 5.71627 9.51767 5.61406 9.56183 5.5229C9.60598 5.43173 9.67616 5.35569 9.76349 5.30437C9.88123 5.23643 10.021 5.21766 10.1525 5.25213C10.284 5.2866 10.397 5.37153 10.4662 5.4885ZM13.6125 7.30687C13.6464 7.36493 13.6684 7.42911 13.6774 7.49573C13.6864 7.56235 13.6821 7.63009 13.6649 7.69505C13.6476 7.76001 13.6176 7.82091 13.5767 7.87426C13.5358 7.9276 13.4847 7.97233 13.4265 8.00587C13.3685 8.03973 13.3044 8.06182 13.2379 8.07089C13.1714 8.07996 13.1037 8.07583 13.0388 8.05873C12.9739 8.04163 12.913 8.01189 12.8596 7.97123C12.8061 7.93057 12.7613 7.87977 12.7275 7.82174C12.667 7.70485 12.6539 7.56919 12.6907 7.44285C12.7275 7.31651 12.8115 7.20917 12.9253 7.14305C13.0391 7.07693 13.1739 7.05711 13.3019 7.08767C13.4299 7.11823 13.5412 7.19685 13.6129 7.30725L13.6125 7.30687ZM20.6467 8.31075H14.1086C12.3071 8.31075 10.6999 9.77175 10.6999 11.5725V19.4677C10.6999 20.0846 11.1832 20.5864 11.7982 20.5864C12.0944 20.5858 12.3783 20.4676 12.5874 20.2579C12.7965 20.0481 12.9138 19.7639 12.9135 19.4677V12.3499H13.836V23.7424H16.83V20.6554H17.7821V23.7424H20.778V12.3502H21.7099V19.4681C21.7099 20.085 22.2086 20.5867 22.8217 20.5867C23.4382 20.5867 23.925 20.0846 23.925 19.4681V11.5729C23.9254 9.77212 22.4475 8.31075 20.6467 8.31075ZM15.2865 9.4965C15.042 9.639 14.7277 9.55687 14.5849 9.31237C14.5216 9.19507 14.5065 9.05776 14.5427 8.92949C14.5789 8.80123 14.6635 8.69209 14.7788 8.62517C14.8941 8.55826 15.0308 8.53883 15.1602 8.57099C15.2895 8.60315 15.4013 8.68439 15.4717 8.79749C15.6127 9.04124 15.5314 9.3555 15.2865 9.4965ZM16.86 10.4055C16.7425 10.4734 16.6029 10.4921 16.4717 10.4576C16.3404 10.4231 16.2281 10.3382 16.1591 10.2214C16.0969 10.1043 16.0825 9.9676 16.1189 9.84008C16.1552 9.71256 16.2396 9.60408 16.3542 9.53739C16.4688 9.4707 16.6048 9.45098 16.7336 9.48236C16.8625 9.51375 16.9741 9.59381 17.0452 9.70575C17.187 9.9495 17.1045 10.2622 16.86 10.4059V10.4055ZM11.9415 6.2775C11.9911 6.32283 12.0313 6.37748 12.0597 6.43834C12.0882 6.4992 12.1044 6.56506 12.1074 6.63218C12.1104 6.6993 12.1002 6.76636 12.0773 6.82952C12.0544 6.89268 12.0193 6.95072 11.9739 7.00031C11.9286 7.0499 11.8739 7.09007 11.8131 7.11854C11.7522 7.14701 11.6864 7.16321 11.6192 7.16623C11.5521 7.16924 11.4851 7.159 11.4219 7.1361C11.3587 7.11319 11.3007 7.07808 11.2511 7.03275C11.151 6.9412 11.0913 6.81361 11.0852 6.67806C11.0791 6.5425 11.1271 6.41009 11.2187 6.30993C11.3102 6.20978 11.4378 6.1501 11.5734 6.14401C11.7089 6.13793 11.8413 6.18595 11.9415 6.2775ZM12.5032 4.602C12.5911 4.65239 12.6621 4.72769 12.7072 4.81838C12.7523 4.90907 12.7695 5.01109 12.7567 5.11156C12.7439 5.21204 12.7016 5.30646 12.6351 5.38292C12.5687 5.45937 12.4811 5.51443 12.3834 5.54114C12.2857 5.56785 12.1823 5.56502 12.0862 5.53301C11.9901 5.50099 11.9056 5.44123 11.8434 5.36125C11.7813 5.28128 11.7442 5.18468 11.7369 5.08366C11.7296 4.98264 11.7524 4.88171 11.8024 4.79362C11.8702 4.67557 11.9819 4.58914 12.1132 4.55317C12.2445 4.5172 12.3847 4.53462 12.5032 4.60162V4.602ZM17.2871 2.4765C16.6118 2.4765 15.9642 2.74476 15.4866 3.22227C15.0091 3.69979 14.7409 4.34744 14.7409 5.02275C14.7409 5.69805 15.0091 6.3457 15.4866 6.82322C15.9642 7.30073 16.6118 7.569 17.2871 7.569C17.9624 7.5689 18.6099 7.30066 19.0875 6.82326C19.565 6.34586 19.8334 5.69837 19.8337 5.02312C19.8335 4.34777 19.5652 3.70015 19.0876 3.2226C18.6101 2.74506 17.9625 2.47669 17.2871 2.4765ZM16.0207 3.34387C16.0884 3.22589 16.2002 3.13961 16.3315 3.10396C16.4627 3.06831 16.6028 3.08622 16.7209 3.15375C16.9657 3.29475 17.0505 3.60562 16.9106 3.85275C16.8429 3.97042 16.7314 4.05649 16.6004 4.09212C16.4694 4.12775 16.3296 4.11004 16.2116 4.04287C16.0939 3.97523 16.0077 3.86371 15.972 3.73271C15.9363 3.6017 15.9536 3.46189 16.0207 3.34387ZM15.3401 5.49187C15.2225 5.42409 15.1365 5.31259 15.1008 5.18167C15.065 5.05075 15.0824 4.911 15.1492 4.79287C15.217 4.67477 15.3289 4.5884 15.4603 4.55275C15.5918 4.5171 15.7319 4.53508 15.8501 4.60275C16.0957 4.743 16.1797 5.05387 16.038 5.301C16.0048 5.35938 15.9604 5.41064 15.9073 5.45186C15.8543 5.49307 15.7937 5.52343 15.7289 5.54119C15.6641 5.55895 15.5965 5.56377 15.5298 5.55537C15.4632 5.54698 15.3988 5.52552 15.3405 5.49225L15.3401 5.49187ZM16.9346 6.71212C16.867 6.82983 16.7555 6.91601 16.6245 6.95184C16.4936 6.98767 16.3538 6.97025 16.2356 6.90337C16.1235 6.8329 16.0429 6.7218 16.0109 6.59331C15.9788 6.46482 15.9976 6.3289 16.0634 6.21399C16.1293 6.09908 16.237 6.01408 16.3641 5.97678C16.4912 5.93948 16.6277 5.95277 16.7452 6.01387C16.9901 6.15412 17.0749 6.46575 16.9346 6.71212ZM17.8556 5.301C17.7881 5.41887 17.6766 5.50517 17.5456 5.54095C17.4145 5.57673 17.2747 5.55908 17.1566 5.49187C17.0387 5.42429 16.9524 5.31262 16.9168 5.18143C16.8811 5.05023 16.8991 4.91026 16.9667 4.79231C17.0343 4.67435 17.1459 4.58808 17.2771 4.55246C17.4083 4.51684 17.5483 4.53479 17.6662 4.60237C17.91 4.74262 17.9974 5.05537 17.8556 5.301ZM14.0314 4.54762C14.3074 4.60875 14.4814 4.87987 14.4214 5.15737C14.3915 5.28977 14.3106 5.40502 14.1962 5.47806C14.0818 5.55109 13.9432 5.576 13.8105 5.54737C13.6781 5.51777 13.5628 5.437 13.4897 5.3227C13.4167 5.20839 13.3918 5.06983 13.4205 4.93725C13.45 4.80466 13.5309 4.68919 13.6454 4.61615C13.7599 4.54311 13.8987 4.51846 14.0314 4.54762ZM14.7517 6.60937C15.027 6.67125 15.2017 6.94237 15.1417 7.21912C15.1119 7.35152 15.0309 7.46677 14.9165 7.53981C14.8021 7.61284 14.6635 7.63775 14.5309 7.60912C14.3983 7.57983 14.2828 7.49908 14.2097 7.38462C14.1367 7.27016 14.1121 7.13138 14.1414 6.99881C14.1707 6.86623 14.2515 6.75072 14.3659 6.67769C14.4804 6.60466 14.6192 6.58008 14.7517 6.60937Z" fill="white"/>
<path d="M14.613 2.586C14.6787 2.60046 14.7409 2.6277 14.796 2.66619C14.8511 2.70467 14.8982 2.75364 14.9344 2.8103C14.9706 2.86695 14.9953 2.93018 15.0071 2.99639C15.0188 3.06259 15.0175 3.13046 15.003 3.19613C14.9886 3.2618 14.9613 3.32398 14.9228 3.37912C14.8843 3.43426 14.8354 3.48128 14.7787 3.51749C14.7221 3.55371 14.6588 3.57841 14.5926 3.59018C14.5264 3.60196 14.4585 3.60058 14.3929 3.58613C14.3272 3.57168 14.265 3.54443 14.2099 3.50595C14.1548 3.46746 14.1077 3.41849 14.0715 3.36184C14.0353 3.30518 14.0106 3.24195 13.9988 3.17575C13.987 3.10955 13.9884 3.04167 14.0029 2.976C14.0173 2.91034 14.0446 2.84816 14.0831 2.79302C14.1215 2.73788 14.1705 2.69086 14.2272 2.65464C14.2838 2.61843 14.3471 2.59373 14.4133 2.58195C14.4795 2.57017 14.5473 2.57155 14.613 2.586ZM6.50625 14.5545C6.59907 14.7263 6.73691 14.8695 6.90498 14.9689C7.07306 15.0683 7.26501 15.12 7.46025 15.1185C7.93088 15.1185 8.33588 14.838 8.49825 14.4244L10.4359 8.73788C10.4828 8.60002 10.5021 8.45426 10.4927 8.30894C10.4832 8.16363 10.4453 8.02158 10.381 7.89093C10.3166 7.76028 10.2272 7.64358 10.1178 7.54748C10.0084 7.45139 9.88112 7.37779 9.74325 7.33088C9.60539 7.28397 9.45964 7.26468 9.31432 7.2741C9.169 7.28352 9.02696 7.32148 8.89631 7.38579C8.76566 7.45011 8.64895 7.53953 8.55286 7.64895C8.45676 7.75837 8.38316 7.88564 8.33625 8.0235L7.22625 11.2883L6.02363 9.13388C5.78134 8.75214 5.4358 8.44689 5.02709 8.25354C4.61838 8.06018 4.16323 7.98664 3.71442 8.04143C3.26561 8.09623 2.84152 8.27712 2.49134 8.56313C2.14115 8.84914 1.87921 9.22856 1.73588 9.65738L0.282379 14.0066C0.176254 14.2706 0.107254 14.7401 0.107254 14.9861V23.7424H4.4565V16.5761L5.65238 13.02L6.50625 14.5545Z" fill="white"/>
</g>
<defs>
<clipPath id="clip0_101_466">
<rect width="24" height="24" fill="white"/>
</clipPath>
</defs>
</svg>
